<svg width="42" height="39" viewBox="0 0 42 39" fill="none" xmlns="http://www.w3.org/2000/svg">
<path d="M3.5 5.83333C3.5 5.83333 18.0833 5.83333 29.1667 5.83333C40.25 5.83333 42 0 42 0C42 7.58333 40.8333 9.91667 37.3333 12.8333C37.3333 12.8333 29.1667 11.6667 18.6667 11.6667C8.16667 11.6667 3.5 11.6667 3.5 11.6667V5.83333Z" fill="#C80000"/>
<path d="M38.5 32.6667C38.5 32.6667 23.9167 32.6667 12.8333 32.6667C1.75 32.6667 1.3113e-06 38.5 1.3113e-06 38.5C6.48346e-07 30.9167 1.16667 28.5833 4.66667 25.6667C4.66667 25.6667 12.8333 26.8333 23.3333 26.8333C33.8333 26.8333 38.5 26.8333 38.5 26.8333L38.5 32.6667Z" fill="#C80000"/>
<path d="M3.5 16.3334H21C21 16.3334 21.5 16.3334 25 16.3334C38.5 16.3334 38.5 17.5 38.5 17.5V22.1667H21C21 22.1667 22.75 22.1667 17.5 22.1667C3.5 22.1667 3.5 21 3.5 21V16.3334Z" fill="#C80000"/>
</svg>
