<svg width="86" height="93" viewBox="0 0 86 93" fill="none" xmlns="http://www.w3.org/2000/svg">
<path fill-rule="evenodd" clip-rule="evenodd" d="M35.4468 48.9568C32.2649 50.9326 33.3473 54.9248 36.2756 56.0214C39.6558 57.2902 43.698 56.7043 37.3911 54.0043C35.8673 53.4696 36.3178 50.1276 38.1495 50.6796C39.9827 51.2333 52.1491 56.9802 57.0627 50.4598C60.1299 46.0703 58.9359 39.812 51.2025 35.0859C43.4691 30.3599 32.1408 31.9312 25.9756 33.6925C23.9702 34.1818 19.2196 34.3744 18.0337 31.8042C15.8093 23.9647 39.179 1.06477 42.7832 3.55736C41.1736 6.60099 39.1814 10.6881 42.1592 12.1475C44.9804 13.5298 48.9242 8.36467 52.2771 8.48091C50.364 11.5872 49.284 14.7818 52.5985 17.6692C55.0199 19.6966 65.6533 22.5426 73.4991 34.8393C85.3059 53.345 77.2832 78.7524 58.2212 84.3274C43.4533 88.6468 31.401 83.1472 23.4878 73.2888C20.7039 69.4547 16.2484 61.0665 12.4854 57.0013C16.352 57.0944 15.71 54.4393 13.7631 53.5201C11.1311 52.2762 5.75397 51.5492 4.10486 51.6649C-4.36263 52.265 2.11749 54.8602 7.75132 60.8271C8.3263 61.4359 10.301 61.5394 10.6556 58.548C14.9678 63.5097 15.9535 68.4973 20.573 75.2296C29.286 88.7875 45.9546 94.6999 61.1958 91.6638C85.9376 86.7347 93.5373 57.909 76.5939 33.9976C67.2198 20.9051 56.5137 19.1798 53.337 15.489C50.1836 11.8284 58.8416 6.41997 55.65 5.12056C53.3808 4.19876 47.0684 8.17238 44.9842 8.93022C42.9912 7.75124 50.0221 -0.176663 45.3147 0.123672C41.0153 0.396441 32.8972 6.70392 29.277 9.66097C25.7424 12.5494 11.7926 28.112 13.6097 33.7821C15.5936 39.9827 29.1108 34.6503 34.8409 34.2358C41.7336 33.7361 50.7292 35.3549 52.0273 41.5086C52.8457 45.3854 51.0527 49.0402 47.4313 49.5468C43.9764 50.2999 40.2188 47.6182 37.5046 46.4323C28.7344 42.6028 22.9886 51.1199 28.7436 56.9413C34.8432 63.1163 32.4094 57.6187 30.2193 54.5691C27.8779 51.3199 31.0874 47.3847 35.4468 48.9568Z" fill="#C80000"/>
<path fill-rule="evenodd" clip-rule="evenodd" d="M26.7983 23.2139C29.6113 26.7146 33.4367 22.96 32.1594 20.4827C33.733 19.2277 35.3499 17.4111 35.7293 15.0042C35.4909 13.9794 33.9573 15.3435 30.6274 17.8889C29.2685 18.9287 26.0295 21.2076 24.8288 21.8394C21.6032 23.537 21.9561 25.4646 26.7983 23.2139Z" fill="#C80000"/>
</svg>
