<svg width="80" height="86" viewBox="0 0 80 86" fill="none" xmlns="http://www.w3.org/2000/svg">
<path d="M38.4587 16.5418H37.6259C36.3448 22.2482 34.2915 29.2062 31.4239 37.3933L26.2996 52.8801C27.7637 52.8801 29.9395 52.9615 32.7855 53.1231C35.6531 53.2831 37.7685 53.3645 39.11 53.3645C40.2282 53.3645 42.0584 53.2831 44.6002 53.1231C47.142 52.9615 49.1148 52.8801 50.5371 52.8801C50.2734 51.8526 50.0297 50.9851 49.805 50.2593C49.5816 49.5133 49.2561 48.5444 48.8294 47.3353L46.7961 41.5877C44.7227 36.123 42.9936 31.2826 41.6116 27.0884C40.2282 22.8941 39.1705 19.3857 38.4587 16.5418ZM37.6259 1.67949L42.2614 0.489136C43.3392 4.28039 44.5801 8.35468 45.9618 12.7306L50.6594 26.9069L56.0891 42.3337L63.8357 63.5481L66.2769 70.1634C67.0695 72.3412 67.944 74.316 68.9196 76.1311C69.8951 77.946 71.0552 79.4193 72.4169 80.5683C73.7584 81.7173 75.2441 82.2818 76.8695 82.2818H79.9805V85.6701L75.5078 85.4284C74.7152 85.4284 74.0438 85.3671 73.4745 85.2671C72.9256 85.1655 72.437 85.0856 71.9904 85.0241C71.5625 84.9841 71.1762 84.944 70.872 84.9241L66.1544 84.8225C64.2637 84.8225 62.0677 84.9642 59.6065 85.2271C58.6512 85.287 57.2678 85.3871 55.4581 85.5086C53.6698 85.6101 52.2662 85.6701 51.269 85.6701V82.2818H54.2388C56.7389 82.2818 57.9999 80.6684 57.9999 77.423C57.9999 76.6354 57.7966 75.2851 57.3903 73.3487C55.6007 66.392 53.9333 61.0672 52.3887 57.3574C48.2602 57.8418 43.665 58.0834 38.5812 58.0834C33.8836 58.0834 29.3301 57.8418 24.938 57.3574L20.8701 68.187C19.935 71.0293 19.4478 73.4501 19.4478 75.405C19.4478 77.9873 19.7317 79.7608 20.2808 80.7697C20.8298 81.7788 22.0704 82.2818 23.9611 82.2818H27.4785V85.6701H26.6455H25.9337C24.2262 85.6701 22.7622 85.59 21.5215 85.4284L14.3238 84.7026C13.3266 84.7026 12.0859 84.8026 10.5614 84.9841L7.0021 85.4284L0.618652 85.6701V82.2818C3.40392 82.2818 5.74267 81.4157 7.63335 79.6809C9.50373 77.946 11.2112 75.4665 12.717 72.2396C13.2661 71.0492 14.2819 68.5083 15.7662 64.617C16.5602 62.5191 17.3728 60.4427 18.2072 58.3448C20.4234 52.3972 22.1713 47.7183 23.4323 44.29C23.5949 43.887 24.9581 40.1757 27.5001 33.1791C28.7192 29.7908 29.6961 27.0884 30.4066 25.0719C32.6445 18.7798 35.0437 10.9757 37.6259 1.67949Z" fill="#2E3033"/>
</svg>
