<svg width="60" height="85" viewBox="0 0 60 85" fill="none" xmlns="http://www.w3.org/2000/svg">
<path d="M19.2579 41.3225V48.2192V59.3303C19.2579 65.4809 19.5029 69.9982 19.9697 72.9222C20.4381 75.826 21.5563 77.9224 23.3057 79.2128C25.0536 80.4832 27.8188 81.1292 31.6216 81.1292C38.2099 81.1292 42.8253 79.2128 45.5097 75.3615C48.1727 71.5302 49.5158 66.6298 49.5158 60.6807C49.5158 55.5389 48.2548 51.486 45.7331 48.5408C43.2317 45.617 40.1824 43.6205 36.6233 42.5516C33.0454 41.4827 29.2828 40.9596 25.3187 40.9596C22.8978 40.9596 20.8848 41.0795 19.2579 41.3225ZM19.2579 27.3478V37.5713C20.8444 37.7329 22.003 37.8128 22.7568 37.8128C28.571 37.8128 33.2485 36.1993 36.8264 32.9741C40.4058 29.7671 42.1956 25.7344 42.1956 20.9141C42.1956 18.4946 41.5847 16.054 40.3857 13.5945C39.1651 11.1135 37.498 9.0572 35.3623 7.40367C33.2081 5.7289 30.8089 4.9028 28.1646 4.9028H19.8892C19.8892 8.89566 19.8287 12.667 19.6859 16.1954C19.5433 19.7036 19.4007 23.4349 19.2579 27.3478ZM0.713867 83.6701V80.2819H3.27599C8.15656 80.2819 10.5962 72.0746 10.5962 55.6389V49.2669V43.1774V28.0522V20.5512C10.5962 16.7599 10.4737 13.816 10.2101 11.7181C9.94638 9.60159 9.27495 7.88677 8.21726 6.55633C7.15957 5.20443 5.55274 4.53987 3.41881 4.53987C2.91005 4.53987 2.4836 4.55979 2.15782 4.59985C1.83226 4.61999 1.36521 4.72133 0.713867 4.9028V1.51452C2.82925 1.51452 5.16669 1.59595 7.7489 1.73605C10.3327 1.89759 11.8572 1.95888 12.3255 1.95888C14.9479 1.95888 17.6325 1.83761 20.3776 1.61609C25.094 1.1516 28.5105 0.910156 30.6259 0.910156C35.5872 0.910156 39.6335 1.87745 42.7445 3.81401C45.8556 5.7289 48.0922 8.12975 49.4337 11.0122C50.7969 13.876 51.4683 16.7599 51.4683 19.6237C51.4683 22.5875 50.6945 25.3298 49.1295 27.8708C47.5633 30.4117 45.3267 32.5696 42.419 34.3645C39.511 36.1594 36.1161 37.3899 32.1908 38.0557V39.1233H34.6304C37.4777 39.1233 40.8324 39.7491 44.6553 40.9795C48.4985 42.2301 51.8947 44.4879 54.8431 47.7749C57.7913 51.0616 59.2756 55.3975 59.2756 60.7823C59.2756 64.9165 58.3605 68.7678 56.5305 72.3576C54.7005 75.946 51.8546 78.8498 47.9494 81.1292C44.066 83.3871 39.3684 84.5175 33.8983 84.5175C32.5367 84.5175 30.1575 84.336 26.741 83.993C20.1947 83.4685 16.2089 83.2056 14.7649 83.2056L9.23456 83.4285L0.713867 83.6701Z" fill="#C80000"/>
</svg>
