<svg width="86" height="85" viewBox="0 0 86 85" fill="none" xmlns="http://www.w3.org/2000/svg">
<path d="M20.0524 5.42752C20.0524 8.10832 20.0122 11.5561 19.91 15.7521C19.8076 19.9661 19.7063 24.2625 19.6039 28.6776C19.5035 33.0737 19.4414 37.0468 19.4414 40.6161V52.9377L19.1975 61.8095C19.1975 64.6531 19.32 67.0741 19.5637 69.0702C19.7866 71.0672 20.1948 72.7608 20.7437 74.1311C21.74 76.7131 23.855 78.5081 27.0667 79.5559C30.2804 80.6046 35.3022 81.1291 42.155 81.1291C49.5366 81.1291 55.4535 79.5758 59.9072 76.4505C64.3601 73.3249 67.5938 69.5338 69.6066 65.078C71.5993 60.6202 72.8384 56.5676 73.3269 52.9377C73.5306 51.3047 73.6732 49.5893 73.7954 47.7545C73.9168 45.9197 73.9782 44.2051 73.9782 42.6131C73.9782 34.8489 72.5544 28.0518 69.687 22.2447C66.8193 16.4366 62.6102 11.9808 57.0195 8.85541C51.4472 5.72916 44.7377 4.17676 36.9087 4.17676C30.5243 4.17676 24.8906 4.59966 20.0524 5.42752ZM0.653809 4.90305V1.51412C2.48381 1.51412 4.82062 1.57476 7.68823 1.67633C10.5358 1.79759 12.4671 1.83743 13.4645 1.83743C13.5047 1.83743 15.9037 1.65531 20.6815 1.29326C23.0615 1.11114 25.0743 1.02949 26.7619 1.02949C33.3498 0.546829 37.5808 0.304077 39.4509 0.304077C43.6601 0.304077 48.1129 0.667219 52.8507 1.37272C55.2698 1.71616 57.6689 2.30017 60.0697 3.08819C62.4486 3.87337 64.909 4.94289 67.4504 6.27333C72.4522 8.83374 76.6821 12.8883 80.1388 18.3929C83.5953 23.9193 85.3249 31.1592 85.3249 40.1116C85.3249 47.9964 83.7175 55.3576 80.5049 62.1726C77.272 68.9886 72.189 74.4942 65.2138 78.709C58.2397 82.9041 49.5366 84.9998 39.0848 84.9998C34.2858 84.9998 29.1207 84.6783 23.6303 84.0325C18.12 83.4087 14.7447 83.0854 13.4645 83.0854L9.82436 83.1848L6.48927 83.4286H3.92756L1.3652 83.6694V80.0395L2.97052 80.4026C5.08548 80.4026 6.71287 79.3539 7.85179 77.2772C9.0097 75.1798 9.7831 72.4574 10.1696 69.1109C10.3329 67.6581 10.4735 65.8234 10.596 63.6254C10.7192 61.4065 10.7794 59.2283 10.7794 57.0711L10.5358 48.6222V40.5146V30.0696L10.3932 23.4944L10.1696 19.0187L10.0471 13.0496C10.0471 7.38181 7.8518 4.5399 3.45921 4.5399C2.87011 4.5399 2.40149 4.55982 2.09755 4.59966C1.77155 4.61958 1.28287 4.72115 0.653809 4.90305ZM49.0863 31.5489C48.3683 31.8553 46.2216 33.5649 45.472 34.1235C44.3236 34.9778 43.1525 35.872 42.0288 36.717C40.9437 37.5334 35.679 41.3008 35.2124 41.9597L41.2582 53.4716C42.3358 52.9699 43.7921 51.6451 44.8657 50.8875L55.2173 43.0218L49.0863 31.5489Z" fill="#C80000"/>
</svg>
