<svg width="57" height="84" viewBox="0 0 57 84" fill="none" xmlns="http://www.w3.org/2000/svg">
<path d="M0.808594 3.9027V0.514424L9.97909 1.07896C10.8134 1.07896 12.9475 1.11901 16.3641 1.22036C19.7806 1.32193 22.7692 1.36199 25.3516 1.36199C30.9844 1.36199 35.8649 1.30048 39.9717 1.18031C44.0799 1.05882 47.9432 0.817377 51.563 0.494507C50.5254 7.39101 49.0817 14.0463 47.2113 20.4785H43.0223C43.6721 18.2405 43.9978 16.0012 43.9978 13.8033C43.9978 11.0809 43.2255 9.06446 41.6792 7.73402C40.1143 6.38212 36.5768 5.71778 31.0649 5.71778C27.2436 5.71778 23.5417 5.91916 19.9636 6.30223C19.9636 10.961 19.8815 15.3568 19.7402 19.5309C19.3123 31.045 19.1092 37.0556 19.1092 37.5587L31.5333 38.3861C35.3158 38.3861 38.1417 37.6802 40.0538 36.2683C41.0497 35.5024 41.8017 34.4933 42.3305 33.183C42.8797 31.8924 43.1432 30.239 43.1432 28.2226H46.4375C46.0512 30.4205 45.7053 32.5585 45.4215 34.5948C45.1564 36.6511 45.0151 38.5676 45.0151 40.3224C45.0151 41.0485 44.9531 42.8019 44.8726 45.6457C44.7701 48.4896 44.7297 50.989 44.7297 53.1471H41.3132C41.4761 52.3209 41.5582 50.929 41.5582 48.9926C41.5582 46.6332 41.0497 44.8385 40.012 43.6094C38.976 42.379 37.1862 41.7744 34.6243 41.7744L27.0604 42.016L19.2317 42.379V50.626C19.2317 53.9344 19.2721 56.9383 19.3325 59.5806C19.3946 62.2216 19.4752 64.6423 19.5776 66.8203C19.5776 68.3922 19.6985 69.8441 19.9636 71.1146C20.2273 72.405 20.5732 73.5953 20.9997 74.7045C21.7534 76.5393 22.9321 77.7298 24.5186 78.2941C26.1036 78.8788 28.5245 79.1616 31.7768 79.1616C35.5191 79.1616 38.61 78.8987 41.0697 78.3743C43.5511 77.8712 45.7874 76.5594 47.841 74.4628C49.8944 72.3851 51.501 69.0981 52.7013 64.6423H56.687C55.6093 69.9457 54.5516 73.9784 53.4738 76.7409C52.3958 79.4832 51.2372 81.298 50.0169 82.1857C48.7762 83.0731 47.3122 83.5174 45.6045 83.5174C42.5137 83.5174 38.0609 83.2346 32.2652 82.6701C30.0492 82.6701 27.7709 82.63 25.4739 82.5284C18.6004 82.227 14.6968 82.0856 13.7415 82.0856C8.92142 82.0856 4.63169 82.2671 0.808594 82.6701V79.1616C3.71658 79.1616 5.87239 78.4557 7.29449 77.0237C8.73845 75.6118 9.63322 73.6969 10.0195 71.2961C10.3854 68.8968 10.5684 65.5499 10.5684 61.254V57.1598C10.5684 52.5225 10.5684 48.4082 10.528 44.8385C10.508 41.27 10.4676 37.8016 10.4475 34.4134C10.4475 32.3155 10.3854 30.239 10.2846 28.1626C10.1621 26.1048 10.0815 23.9069 9.97909 21.5874L9.59283 12.7143C9.59283 9.75048 9.00351 7.49258 7.82332 5.93908C6.64467 4.3858 4.95727 3.59975 2.8015 3.59975C2.15015 3.59975 1.50033 3.70132 0.808594 3.9027Z" fill="#2E3033"/>
</svg>
