<svg width="54" height="99" viewBox="0 0 54 99" fill="none" xmlns="http://www.w3.org/2000/svg">
<path d="M49.2547 32.5973H45.0334C45.6991 29.4984 46.0244 27.1037 46.0244 25.4602C46.0244 22.469 45.1188 20.2849 43.2846 18.8957C41.4533 17.5069 38.0935 16.827 33.1986 16.827C30.0127 16.827 26.0876 17.1207 21.4569 17.7236C21.4569 20.2242 21.3469 23.2988 21.1529 26.978C20.9406 30.6327 20.7223 34.7556 20.5069 39.2904C20.2672 43.8388 20.1617 47.6634 20.1617 50.8078C21.518 50.8078 23.8471 50.8713 27.1872 51C30.5318 51.1289 33.1986 51.1939 35.2237 51.1939C38.1131 51.1939 40.4638 50.5941 42.3393 49.378C44.1933 48.1813 45.1188 45.655 45.1188 41.8305H48.8682C48.2405 44.9946 47.8573 47.003 47.7275 47.8799C47.3593 50.0822 47.1852 52.0498 47.1852 53.7567V67.4793H43.4616C43.6128 66.6464 43.6985 65.4269 43.6985 63.8246C43.6985 61.0466 43.0723 59.0989 41.823 57.9917C41.154 57.4116 40.3782 56.9449 39.5138 56.5998C38.6768 56.2362 37.6626 56.0681 36.4776 56.0681H28.9572H24.7558L20.5513 56.3255V67.3703V71.8823C20.5513 77.5456 20.7009 81.9047 21.0262 84.981C21.3469 88.0633 22.1014 90.5836 23.3308 92.5723C24.5372 94.5594 26.4326 95.5653 29.0015 95.5653C29.927 95.5653 31.2176 95.3485 32.858 94.923V98.6414C32.0164 98.6414 30.2921 98.5567 27.6865 98.387C25.0734 98.2143 22.8772 98.1506 21.1117 98.1506H10.2467C8.43985 98.299 6.82396 98.428 5.4204 98.5127C4.00006 98.5976 2.64086 98.6414 1.28475 98.6414V94.7943L3.11585 95.0471C6.3461 95.0471 8.45972 92.9131 9.47084 88.66C10.4864 84.4084 10.9812 78.1454 10.9812 69.833V60.2137V43.3043C10.9812 37.7454 10.5888 29.2438 9.73505 23.405C8.6385 15.8984 3.71599 10.7229 0.215576 6.35612C2.65763 6.9362 9.24637 7.78595 13.2661 11.4605C13.2904 11.4848 12.4841 8.34194 12.73 6.45769C13.341 1.76371 15.6501 -0.770221 15.4319 0.20824C14.7933 3.07095 19.8472 7.84658 23.7201 9.72317C31.5383 13.5144 33.3756 12.7282 39.8038 12.4633C43.9168 12.298 43.0937 12.2057 44.0834 12.2057C46.0244 12.2057 47.8787 12.1209 49.6242 11.9528C51.3685 11.7589 52.769 11.6302 53.8242 11.5453C52.8131 18.811 51.2829 25.8222 49.2547 32.5973Z" fill="#C80000"/>
</svg>
