<svg width="58" height="84" viewBox="0 0 58 84" fill="none" xmlns="http://www.w3.org/2000/svg">
<path d="M0.174561 82.67V79.1616C3.3463 79.1616 5.62434 78.2341 6.98618 76.3779C8.34935 74.523 9.14195 72.6479 9.34502 70.7315C9.5483 68.8166 9.69088 66.8002 9.79307 64.6823C9.89394 62.5444 9.93434 60.0035 9.93434 57.0598V38.2447L10.1793 30.8635V22.7578C10.1793 16.8087 9.5684 12.1699 8.34936 8.86306C7.12878 5.55621 4.64745 3.90268 0.906687 3.90268V0.514404H4.91254L7.35214 0.675951L9.91425 0.837493H19.2273L21.7894 0.675951L24.2304 0.514404H28.2349V3.90268H25.6728C23.5386 3.90268 21.9925 5.09172 21.0573 7.45119C20.5702 8.70151 20.1625 10.2749 19.8383 12.1699C19.4924 14.0662 19.3295 16.2241 19.3295 18.6636C19.3295 20.6 19.2677 24.7143 19.1465 31.0251C19.024 37.3172 18.9636 42.0359 18.9636 45.1414V56.0108C18.9636 61.597 19.1265 65.7112 19.4304 68.3521C19.7562 70.9946 20.4075 73.1724 21.4032 74.8658C22.4004 76.5594 23.9249 77.7497 25.9782 78.4556C28.0115 79.1616 30.9193 79.5245 34.702 79.5245C38.0768 79.5245 41.5942 78.4156 45.2542 76.2164C48.9159 74.0184 51.6608 69.8441 53.491 63.6735H57.4147C56.6625 66.7787 55.4017 70.6516 53.6119 75.2688C52.2905 78.7787 50.9693 81.0566 49.6262 82.1456C48.2645 83.2144 46.1909 83.759 43.3637 83.759C39.7037 83.759 35.0059 83.4975 29.2522 82.973C23.4982 82.4485 18.6782 82.2055 14.8352 82.2055L8.99915 82.4284L0.174561 82.67Z" fill="#C80000"/>
</svg>
