<svg width="73" height="83" viewBox="0 0 73 83" fill="none" xmlns="http://www.w3.org/2000/svg">
<path d="M18.2966 44.8166H22.1813C31.3529 44.8166 37.6664 42.7805 41.0781 38.6918C44.5099 34.603 46.2274 29.7324 46.2274 24.0801C46.2274 16.9805 44.1342 11.8737 39.9341 8.78287C37.8844 7.25914 35.6134 6.08478 33.1107 5.28297C30.6048 4.48115 27.8642 4.08868 24.865 4.08868C23.9391 4.08868 22.9127 4.14865 21.7888 4.26511C20.6651 4.38156 19.558 4.53785 18.4745 4.71406L18.2966 16.8441V29.0705C18.2966 31.4558 18.2966 33.9575 18.2966 36.5792C18.2966 39.2007 18.2966 41.9388 18.2966 44.8166ZM0.899414 4.44132V1.15439C3.28805 1.37066 7.03517 1.46719 12.1442 1.46719C16.9144 1.46719 20.6046 1.31069 23.1877 0.977967L26.5626 0.801756L30.3299 0.685303C35.7342 0.685303 40.31 1.6434 44.0772 3.57975C47.8445 5.49923 50.6825 8.10102 52.5979 11.3645C54.51 14.6317 55.4562 18.1914 55.4562 22.0472C55.4562 29.9686 52.8933 35.8172 47.784 39.6133C42.6549 43.4059 37.1332 45.8511 31.1953 46.9093V47.4948C35.3586 47.8674 39.3606 49.3745 43.2082 52.0126C47.0561 54.6542 51.4542 59.6811 56.3855 67.0769C59.8943 72.28 62.8129 75.78 65.1611 77.56C67.5094 79.3597 70.1126 80.2614 72.9541 80.2614V82.843L69.5994 82.9595C65.7348 82.9595 62.38 82.2741 59.5219 80.9067C56.6605 79.516 54.0774 77.6397 51.7693 75.2511C49.4615 72.8656 46.4422 69.226 42.7352 64.2989C38.5354 58.6464 34.9826 54.4778 32.1044 51.7797C29.2227 49.0982 25.7709 47.7509 21.7083 47.7509H18.2966C18.2966 53.9124 18.4341 57.492 18.6925 58.4702C18.9675 59.4482 19.1051 62.7152 19.1051 68.2679C19.1051 71.1256 19.6788 73.4511 20.8596 75.2345C22.0237 77.0143 23.5434 77.9126 25.4555 77.9126C26.0695 77.9126 26.7202 77.7962 27.408 77.56V80.8469H23.9391L21.3931 80.6506L18.7899 80.3977H9.87327C8.45425 80.3977 7.0149 80.4376 5.59258 80.5341C4.15348 80.6306 2.59698 80.7305 0.899414 80.8469V77.5033C1.55032 77.6964 2.22125 77.836 2.87193 77.9126C4.80412 77.9126 6.30376 76.9944 7.3705 75.1745C8.43393 73.3546 9.16535 70.9093 9.55779 67.7988C9.93346 64.6881 10.1315 60.9919 10.1315 56.707V47.7509V38.848V30.8868V23.7673C10.1315 16.9606 9.67855 12.0499 8.7694 8.99914C7.88387 5.96833 6.00866 4.44132 3.18741 4.44132H0.899414Z" fill="#2E3033"/>
</svg>
