<svg width="77" height="81" viewBox="0 0 77 81" fill="none" xmlns="http://www.w3.org/2000/svg">
<path d="M70.1985 0.154297V3.93023C66.4312 8.33199 62.4861 13.1065 58.4034 18.2497C54.3214 23.413 49.8428 29.2419 44.9521 35.7355L34.1428 50.1149L26.1724 60.3047C23.7475 63.3191 21.4794 65.9771 19.4093 68.2661C17.5543 70.4187 15.7396 72.375 13.9851 74.1747L19.7449 73.9784L31.3623 74.3312C34.1025 74.3312 36.2731 74.3711 37.8698 74.4678C39.4667 74.5475 41.0471 74.6639 42.5838 74.8005L52.4054 75.269C57.5954 75.269 61.618 74.2515 64.4587 72.2384C67.2803 70.2024 69.9804 66.2133 72.5639 60.2486L76.4316 60.3644C75.049 67.0751 73.6713 71.8061 72.3088 74.5475C70.9472 77.3049 69.2328 79.025 67.2 79.7504C66.1931 80.1403 64.8716 80.4323 63.2549 80.6087C61.6381 80.8048 59.6454 80.9055 57.2598 80.9055C55.9785 80.9055 54.9515 80.8856 54.1437 80.8657C50.9461 80.7291 49.1917 80.6693 48.8763 80.6693C47.2191 80.6693 45.109 80.5527 42.5464 80.3364C39.9801 80.1004 38.0478 79.9268 36.7464 79.8073L23.9042 78.9094L15.6019 78.6723C14.3972 78.6723 13.3339 78.6723 12.4044 78.6723C11.499 78.6723 10.5134 78.7529 9.46628 78.8895L6.11487 79.2783L0.690674 79.8472V76.2875C5.83963 70.5354 10.6098 64.9625 14.9507 59.563C19.3091 54.1837 24.8911 46.9836 31.718 37.9877C34.1026 34.8176 36.7263 31.3545 39.567 27.6184C41.3828 25.2526 43.4318 22.6107 45.6999 19.7167C48.3236 16.3532 49.7453 14.5335 49.9805 14.2577C53.3721 10.1716 56.1563 7.15806 58.3633 5.22171L35.7595 5.79063H29.1143C24.26 5.79063 20.3149 6.02309 17.2992 6.47248C14.2806 6.94092 11.6569 8.0389 9.42894 9.77911C7.21843 11.4992 5.66173 14.1609 4.73338 17.7605H0.690674C1.71658 14.4339 2.58286 11.3825 3.27327 8.58526C3.98465 5.79063 4.53534 2.99249 4.95117 0.154297C13.7469 1.09314 25.4245 1.5653 39.9801 1.5653C44.911 1.5653 49.8628 1.4449 54.8339 1.23235C59.8032 0.996386 64.9319 0.643527 70.1985 0.154297ZM27.879 33.5887C30.7819 33.4388 34.8561 34.8384 40.0777 37.7904C43.7732 39.8424 46.5375 40.9016 48.3733 40.9414C50.2167 40.9972 51.8518 40.1981 53.2677 38.5557L54.2335 40.582L52.6042 42.6123C50.6755 44.8472 48.748 46.2488 46.8099 46.8282C44.8642 47.3914 42.8744 47.4122 40.831 46.8746C38.7887 46.337 35.9193 45.2445 32.2324 43.5027C28.0215 41.5141 24.9359 40.7801 22.4938 40.3336C20.0606 39.887 17.563 41.1111 15.7493 42.6928C15.3074 39.8793 15.6153 42.1202 15.1736 39.3056C17.2407 36.5784 22.7349 33.8551 27.879 33.5887Z" fill="#2E3033"/>
</svg>
