<svg width="42" height="55" viewBox="0 0 42 55" fill="none" xmlns="http://www.w3.org/2000/svg">
<path fill-rule="evenodd" clip-rule="evenodd" d="M14.2434 17.4806C13.903 15.3847 13.6057 12.5449 13.0592 10.5745C11.9195 9.41741 10.7314 9.42042 9.55408 8.23199L9.65857 6.93673C12.1204 6.39283 14.9724 6.06632 17.4968 5.67017C23.4795 4.73119 23.8338 4.0018 24.0574 6.196C22.9848 7.19646 22.4936 8.29949 21.4552 9.28259C22.9275 18.4885 21.8225 17.5263 25.9929 19.3968C27.0685 19.8792 28.5884 20.5645 29.4889 21.225C30.1224 21.6895 30.3912 22.0731 31.0416 22.5369C32.4007 23.5058 34.499 24.9214 35.2735 26.3926C33.7263 27.2208 31.0754 28.973 28.9631 29.5447C24.2429 30.8226 10.018 31.4992 5.54253 30.1364C5.42996 29.0928 6.09709 28.4434 6.48846 27.5966C8.45196 23.348 8.06741 24.5681 11.3786 21.734C13.6294 19.8075 14.6313 19.869 14.2434 17.4806ZM24.3994 49.3058C25.1228 49.1088 24.9551 49.1245 25.2563 48.7321L26.7209 46.8772C26.1678 44.1331 26.6398 44.5505 24.8407 43.5748C23.1255 42.6447 24.1625 42.5951 21.4374 43.3378C20.8618 43.4946 20.3324 44.7858 20.2023 45.3886C19.5351 48.474 19.5488 47.5731 21.7403 49.1648C22.0832 49.4139 22.2823 49.6801 22.8354 49.5675C23.321 49.4686 23.9881 49.4178 24.3994 49.3058ZM30.3045 37.5641C30.6901 38.0139 30.6226 37.8998 31.0104 37.9836L32.8574 38.4085C34.6817 37.0982 34.5336 37.574 34.6475 35.9657C34.7559 34.4322 35.1383 35.155 33.685 33.4601C33.3782 33.102 32.256 33.1557 31.7712 33.2639C29.2896 33.8183 29.9537 33.5272 29.5201 35.6211C29.4523 35.9487 29.3235 36.1796 29.5907 36.5364C29.8253 36.8496 30.0851 37.3083 30.3045 37.5641ZM6.65327 40.4874C6.76422 41.1762 6.76673 41.0197 7.10729 41.339L8.71299 42.8865C11.374 42.6637 10.9286 43.0559 12.0427 41.4965C13.1052 40.0095 13.0432 40.9728 12.6249 38.3775C12.5366 37.8295 11.3673 37.205 10.8093 37.0215C7.95269 36.0812 8.80581 36.1884 7.06618 38.0458C6.79402 38.3364 6.52024 38.4923 6.56925 39.0151C6.61216 39.4741 6.59007 40.0956 6.65327 40.4874ZM5.25079 6.26332L6.14969 11.6575C7.06331 12.1158 7.96939 12.6096 8.99 12.9832L9.49412 17.5584L3.65228 23.0808L0.129395 30.4901L0.274452 38.0504C0.45793 39.1887 1.24014 40.9747 1.57083 42.0756C2.24998 44.3377 2.03042 44.1294 3.42392 45.6161C9.89555 52.5214 5.49046 48.9527 14.7758 53.8761C15.869 54.4556 22.4096 54.7285 23.3591 54.5795C24.5621 54.3908 26.3773 53.7069 27.6674 53.4605C30.593 52.9014 31.9741 51.4989 34.6054 49.6397C37.1984 47.8077 36.8727 47.3834 38.8892 44.1125C41.2794 40.2358 40.8182 40.87 41.4483 37.152C42.3772 31.6714 41.6 32.2995 40.7668 27.4788C40.574 26.3626 39.9904 25.5861 39.4326 24.8188C38.9218 24.1158 38.3594 23.2107 37.896 22.431C36.1571 19.5063 35.9876 19.5742 31.7276 17.3915L28.3178 15.4494C27.9347 15.2699 28.0778 15.3798 27.6954 15.2451C26.6865 14.8901 26.8031 13.5762 26.4193 10.9139L26.3087 10.0433C26.8586 9.61761 28.3604 8.22561 28.367 7.50809C28.3695 7.22622 27.7067 3.37658 27.5961 2.98699C26.4996 -0.874868 23.0295 0.59561 20.7757 0.949233C17.6382 1.44175 14.5008 1.9341 11.3634 2.42644C8.23168 2.91808 4.70988 2.90674 5.25079 6.26332Z" fill="#B09EC7"/>
</svg>
