<svg width="75" height="75" viewBox="0 0 75 75" fill="none" xmlns="http://www.w3.org/2000/svg">
<path fill-rule="evenodd" clip-rule="evenodd" d="M21.2529 42.5022C21.9602 43.6186 23.7976 44.4036 24.9704 45.0086C27.5588 46.3437 26.3123 45.9171 29.46 46.5547C32.8525 47.242 33.7745 47.827 37.2409 47.4149C38.4616 47.2696 39.4144 47.3693 40.3112 47.2616C46.6881 46.4954 47.4655 47.1162 52.0456 44.0888C53.1513 43.3581 54.9777 42.866 55.0048 41.2635C55.0057 41.2098 54.9949 41.1379 54.9906 41.0892C54.9146 40.2088 53.1759 40.4602 52.5289 40.4703C51.6344 38.8562 51.9852 40.0455 50.8143 37.1463C50.3071 35.8904 49.8654 34.8104 49.3174 33.5401C47.4106 29.1195 47.0897 26.673 46.5356 22.0608C46.3756 20.7294 47.2359 20.4575 47.9191 19.4147L51.2236 14.9303C52.0592 13.5562 52.7376 13.176 52.6058 12.079C52.2667 9.25634 49.2634 10.0573 46.6727 10.3686C42.1206 10.9157 39.7375 11.3926 35.5608 12.8526C34.3955 13.2599 33.8808 13.9546 33.13 14.6755C28.0246 19.5759 29.2752 17.3753 26.3666 24.1168C24.3087 28.887 24.1636 31.0291 22.7505 36.2231L21.2529 42.5022Z" fill="#D6804E"/>
<path fill-rule="evenodd" clip-rule="evenodd" d="M6.78247 56.0347C7.09198 57.9915 10.5616 60.2454 12.05 61.5839C13.2825 62.6924 12.3602 62.7636 15.5166 63.4363C25.1092 65.481 19.208 64.42 29.0855 64.9383C31.5687 65.0687 34.2094 64.8609 36.6622 64.556L42.334 64.0957C44.4155 63.8458 54.925 61.1018 56.5572 60.3228C61.0964 58.157 63.3496 57.6467 67.5192 54.0201C67.127 47.5658 70.1726 47.7612 65.9543 45.5337C63.5565 44.2675 60.757 42.0517 58.4299 42.2124C57.1422 44.7724 56.1223 45.958 54.2739 47.7134C53.0095 48.9142 52.8871 48.857 50.9244 49.4124C45.1281 51.0524 43.0441 51.3102 37.0359 51.3247C31.6055 51.3378 33.6205 51.3958 28.3696 50.3323C25.8925 49.8305 25.7105 49.7593 23.5245 48.4933C22.2526 47.7568 20.214 46.8263 19.4176 45.7442C17.8722 45.8508 16.4081 46.6534 15.291 47.3816C14.1898 48.0994 10.5944 49.8585 9.99449 50.8868L8.88933 52.5707C8.29387 53.5338 6.90099 55.4446 6.78247 56.0347Z" fill="#D6804E"/>
</svg>
