<svg width="75" height="76" viewBox="0 0 75 76" fill="none" xmlns="http://www.w3.org/2000/svg">
<path fill-rule="evenodd" clip-rule="evenodd" d="M38.8603 20.4076C37.8555 19.815 36.5981 18.6633 35.604 17.8488C34.2707 16.7562 28.2562 14.1424 27.3336 14.1316C25.952 14.1157 23.8609 14.349 22.2625 14.4397C19.247 14.611 18.3631 16.4682 15.2948 18.8943C13.4772 20.3315 13.8231 19.7383 12.838 22.33C10.517 28.4361 10.9649 26.0119 11.7906 33.1004C12.1157 35.8915 15.4257 42.4037 17.4098 44.9597C19.1933 47.2575 20.197 48.9641 22.1697 51.1317C23.3865 52.4684 24.5517 53.5627 25.6716 54.9256L31.2753 60.2373C33.0925 61.8114 33.8007 62.5854 36.5272 60.9912C37.8367 60.2257 39.6087 59.5194 40.9842 58.6194C41.724 58.1352 42.4999 57.5713 43.2018 57.173C45.1189 56.085 49.6894 52.7275 51.4618 51.3392L55.268 48.1301C56.7307 46.9828 61.1386 41.5722 61.803 39.8002C64.275 33.2061 64.1568 35.5858 63.3923 29.2765C63.1321 27.1293 63.316 26.8711 61.9346 25.059C58.5013 20.5553 60.1355 20.4105 56.2446 18.8224C52.425 17.2633 51.5445 16.1292 47.0759 17.3624L40.7491 19.3451C40.1389 19.6245 39.4783 20.1383 38.8603 20.4076Z" fill="#D06068"/>
</svg>
