<svg width="75" height="75" viewBox="0 0 75 75" fill="none" xmlns="http://www.w3.org/2000/svg">
<path fill-rule="evenodd" clip-rule="evenodd" d="M22.5099 46.6372C22.3999 48.5467 23.6241 55.7014 23.9791 58.2003C24.5879 62.484 24.2087 60.7382 26.4869 65.0497C27.2909 66.5716 27.2393 66.4068 29.4233 66.5328C30.8748 66.6166 31.5677 65.103 33.0695 63.2789C34.6408 61.3703 34.2951 61.8776 35.1294 60.1734C35.5863 59.2401 35.9486 59.2679 36.2325 59.1485C36.7726 60.6037 38.4187 65.9669 40.2061 66.8093L42.0793 67.2627C43.4142 67.3396 43.4647 66.8618 44.052 65.9311C48.1276 59.4724 47.5101 60.6041 49.274 52.9135C49.6829 51.1305 50.4491 47.9192 50.5436 46.282C50.587 45.5299 49.5367 40.3018 49.3142 39.6402C48.1307 38.9923 46.3068 38.4134 44.9116 37.7217C40.1014 35.337 38.6889 37.9974 34.931 37.0839C28.7045 35.5702 30.7286 34.9049 24.5744 39.3405C23.3883 40.1955 23.6381 40.9582 23.2942 42.6914C23.0972 43.6839 22.5705 45.5873 22.5099 46.6372Z" fill="#F5C2CB"/>
<path fill-rule="evenodd" clip-rule="evenodd" d="M29.0842 10.3164L29.6423 15.8164C29.3971 16.6825 24.8328 19.4554 24.7433 21.0072L24.6707 22.2654C24.44 26.2651 31.3852 25.1649 32.5799 26.6595C33.9442 28.3661 33.7839 33.728 37.1392 33.9215C38.415 33.995 39.6275 33.5393 40.0908 32.6564C40.5908 31.7034 41.0548 30.5514 41.5498 29.5485C42.0405 28.5535 42.3803 27.2457 43.4499 26.9142C45.9415 26.142 48.7948 26.6805 50.4005 25.2756C52.8601 23.1236 50.7388 21.0803 49.4036 19.6471C48.5788 18.7618 48.2869 18.038 47.3332 17.2644C47.3605 13.0668 48.1483 12.342 48.2731 10.7526C48.3482 9.79398 47.2023 8.63017 45.3953 8.52582C44.3871 8.46771 42.2088 9.37179 41.0853 9.67031C38.2883 10.4139 39.4036 10.5499 36.6033 9.46516C35.4755 9.02826 33.3465 8.15661 32.2062 7.8386C30.3685 7.32588 29.1779 8.6897 29.0842 10.3164Z" fill="#F5C2CB"/>
<path fill-rule="evenodd" clip-rule="evenodd" d="M5.52963 27.4741C5.45327 28.7986 5.97006 31.0113 6.10152 32.3469C6.4151 35.5389 7.93554 36.409 10.2006 39.8777C11.0111 41.1191 11.7141 42.2388 12.9238 43.0112C12.5955 46.2984 10.314 46.5315 12.2734 51.0833C13.579 54.1158 13.3689 55.1996 15.0502 56.062C17.6384 57.3899 17.9759 56.9175 19.2938 56.2255C19.3255 53.3127 18.628 47.0862 18.6289 47.071C18.6968 45.9045 19.0235 44.8499 18.9358 43.6581C18.6805 40.1854 19.53 40.4251 22.3542 35.9129C23.4783 34.1168 23.0908 34.0575 25.1561 31.1441C25.7907 30.2487 25.8805 29.4279 25.4045 28.3968C24.7054 26.8828 20.2792 24.327 18.9448 23.3903C16.7915 21.8785 16.2343 21.7581 13.3377 21.1378C9.68328 20.3553 9.63492 19.9271 8.23407 22.376C7.73003 23.2572 5.57746 26.6471 5.52963 27.4741Z" fill="#F5C2CB"/>
<path fill-rule="evenodd" clip-rule="evenodd" d="M54.8173 42.8044C54.6752 45.2684 54.182 46.2246 53.9524 50.2034C53.6018 56.2871 52.6664 53.5116 52.4704 56.9096C52.3701 58.6487 53.6959 59.1673 55.1899 59.0321C55.7946 58.9773 61.0339 54.5121 61.1455 54.1237L60.5442 45.7666L65.9729 40.2155C67.0561 39.0655 66.9812 38.3072 67.7446 36.3991C69.4587 32.114 69.3587 31.9085 69.478 27.2241C68.6628 26.7066 61.5059 23.4558 60.4363 23.7732L56.027 25.5709C53.841 26.5122 53.6743 26.3519 52.2025 28.0222C50.3832 30.0871 46.1569 32.0214 50.1752 34.9184C51.3631 35.7748 53.1729 36.754 53.5022 37.9662C53.8473 39.2363 54.8864 41.6059 54.8173 42.8044Z" fill="#F5C2CB"/>
</svg>
