<svg width="75" height="75" viewBox="0 0 75 75" fill="none" xmlns="http://www.w3.org/2000/svg">
<path fill-rule="evenodd" clip-rule="evenodd" d="M11.9268 34.6808C11.9854 33.5441 12.4306 31.8127 12.5888 30.4988C12.7688 29.0023 13.655 28.7274 14.619 28.0736C20.7824 23.8934 18.3859 23.086 26.0543 27.4215C27.5519 28.2681 30.5437 30.7157 30.4619 32.3065C30.0744 39.8394 30.8449 37.1725 26.8647 40.7149C22.6901 44.4301 24.2166 43.5937 16.3984 42.6388L12.7141 37.3417C11.9277 36.2429 11.824 36.6803 11.9268 34.6808ZM8.7757 27.642L7.50045 34.4532C7.46166 35.206 9.04959 40.8051 9.37895 41.6261C9.65355 42.311 12.9961 45.8561 13.8127 46.5366C13.5455 47.1818 13.8301 46.5912 13.5751 47.0123C13.2924 47.4791 13.5774 46.8984 13.3018 47.4246C12.5897 48.7838 13.0792 51.9767 13.1627 53.3945C13.2022 54.0663 13.033 54.6269 13.1715 55.2967C13.1774 55.3254 13.3852 55.9347 13.3863 55.9372C13.7208 56.6682 13.7617 56.5178 15.2361 56.5936C16.4163 56.6544 18.7597 56.4517 20.1143 56.3822C21.9861 56.2862 22.4107 55.0725 24.6829 53.0312C25.2532 52.519 25.4392 52.1519 25.9691 51.6491C29.0038 48.7703 27.8019 50.6422 27.7039 56.3105C29.4561 57.0076 32.405 59.193 33.9535 59.3315C34.7215 59.2718 39.4736 54.6662 40.392 53.838C41.7838 52.5827 41.7828 52.1829 42.501 52.0424C41.4981 56.3436 41.7073 55.3412 43.3245 58.4762C44.0464 59.8758 45.0279 60.6346 46.9861 60.4455C48.1677 60.1516 50.1714 58.0451 50.9651 57.1423L53.5464 54.3907C54.1291 53.7147 53.7321 53.7783 54.6677 53.4454C54.5773 55.2013 54.9088 56.7927 55.0713 58.4264C55.2584 60.3097 57.0816 60.5212 58.7365 60.6064C59.9857 60.6705 60.6134 59.924 61.4232 59.3771C62.2371 58.8275 65.9765 56.494 66.2634 55.858C67.3767 53.389 67.3402 48.6188 67.4766 45.9693C67.5974 43.6178 67.2213 36.5071 66.9265 34.0131C66.5885 31.154 66.9487 31.3795 65.5926 29.1001C64.7373 27.6622 64.0022 26.4269 63.1422 24.9805C62.6933 24.2254 62.5417 23.7531 61.8647 23.1753L56.4016 18.6133C54.8686 17.3237 48.8269 15.3304 46.6495 14.9656L40.4781 14.4047C39.1836 14.3346 38.6719 14.5358 37.368 14.4666C36.0741 14.3978 30.9535 15.6945 29.6028 16.1518C28.1426 16.6462 26.5003 17.4936 25.0551 18.1257C20.5156 20.1112 19.9639 19.9635 15.5769 21.4212C14.3453 21.8305 12.9302 23.4035 12.0767 24.3182L8.7757 27.642Z" fill="#B6907A"/>
<path fill-rule="evenodd" clip-rule="evenodd" d="M19.2586 34.5066C19.2042 35.5642 19.2329 35.3314 19.3776 35.8986L20.0531 38.6346C21.657 39.0093 21.327 39.4762 22.2532 37.4455C23.1364 35.5092 22.9326 36.9301 23.1376 32.9462C23.1808 32.105 22.6017 30.8622 22.3053 30.4398C20.7886 28.2777 21.2715 28.6643 19.9256 30.9734C19.7151 31.3347 19.527 31.4945 19.465 32.2876C19.4104 32.9839 19.2894 33.9055 19.2586 34.5066Z" fill="#B6907A"/>
</svg>
