<svg width="75" height="76" viewBox="0 0 75 76" fill="none" xmlns="http://www.w3.org/2000/svg">
<path fill-rule="evenodd" clip-rule="evenodd" d="M37.0117 19.8518L40.0779 44.4846C40.3653 46.8548 39.859 49.8545 40.1341 52.0683L40.9142 58.2354C43.5778 58.2365 42.8678 58.7086 46.9982 55.8816C48.5078 54.8484 48.6193 55.1186 50.4115 54.6019C51.0953 54.4048 51.8336 54.3892 52.5407 54.2874C56.0115 53.7883 52.3954 53.503 59.3862 54.024C62.1833 54.2325 66.7868 55.4683 66.2825 51.4117L62.7311 24.6114C62.4825 22.6093 62.0963 21.3054 61.8582 19.3615C61.602 17.2696 61.5093 16.0869 59.7384 15.7452C56.3407 15.09 48.6242 15.2853 44.9436 16.1786C43.2182 16.5975 39.3599 17.8958 37.7078 19.0128C36.9929 19.4961 37.185 19.1995 37.0117 19.8518Z" fill="#DCC796"/>
<path fill-rule="evenodd" clip-rule="evenodd" d="M8.74815 26.5865L12.7659 58.9122C13.1757 62.2098 17.3201 59.9649 19.8662 58.9423C20.9885 58.4914 25.7215 57.7045 27.1421 57.5232C28.05 57.4074 32.2956 58.1607 33.7305 58.3777L35.2268 58.7384C35.8104 58.94 35.3347 58.8043 35.9139 58.9242L36.8844 58.2443C36.7381 56.1444 36.169 53.8915 36.2611 51.8034C36.3072 50.7564 36.2282 49.8268 36.2197 48.7882C36.2131 47.9834 36.3462 46.4465 36.2459 45.6395C35.311 38.118 34.1637 27.2287 33.047 20.135C31.5514 19.3022 24.8662 18.4909 22.9845 18.7365C21.4587 18.9358 20.3993 19.293 19.1092 19.4616C17.126 19.7205 10.2406 21.3495 9.05873 22.8638C8.6066 23.443 8.64026 25.7187 8.74815 26.5865Z" fill="#DCC796"/>
</svg>
