<svg width="76" height="76" viewBox="0 0 76 76" fill="none" xmlns="http://www.w3.org/2000/svg">
<path fill-rule="evenodd" clip-rule="evenodd" d="M24.34 26.3175C24.494 24.8642 26.5898 23.5222 28.158 22.317L32.6044 19.0954C33.4491 18.7963 34.8257 18.6179 35.6847 18.4121C36.6693 18.1762 37.4807 17.9509 38.541 17.7084C40.7819 17.1955 42.5118 18.2931 44.1707 19.3557C50.2037 23.2204 47.6401 20.4722 50.6299 24.8141L53.616 29.4579C54.1896 30.3951 54.5505 30.9317 53.6668 32.1857C52.7776 33.4478 49.088 34.0666 48.2677 33.9797L32.4963 31.4152C29.6199 30.983 26.5863 30.3789 24.7443 28.812C24.2154 28.2287 24.2459 27.2041 24.34 26.3175ZM6.84839 33.8246C7.57081 35.3174 11.9335 39.6016 13.2714 40.7057C13.8977 41.2228 18.8559 43.1681 19.9696 43.5522C21.2857 44.006 22.3225 44.218 23.6937 44.5765C24.7362 44.8491 26.2997 45.4297 27.4146 45.5927C28.1219 45.6959 28.9133 45.7385 29.6328 45.8169C30.6872 45.9318 30.9488 46.1839 31.8085 46.2751L46.1663 47.5799C48.2054 47.7136 55.3725 47.5996 56.8046 47.2826C62.8894 45.9352 62.6648 46.1589 68.3741 43.687L69.1518 36.4175C67.3729 34.7808 63.1267 32.3282 61.0558 31.1006C58.3699 29.5084 58.8751 31.1378 57.6116 27.8363C56.3721 24.5972 56.0612 24.3258 54.1866 21.7415C51.5105 18.0525 52.5949 18.4186 49.2398 16.6694C48.1991 16.1269 45.6735 14.5496 44.7495 14.2603L38.417 13.3191C36.9775 13.1663 34.6849 13.8948 33.3484 14.2788C30.151 15.1973 30.0081 14.9142 26.9891 17.6251C26.2846 18.2577 26.0103 18.6241 25.2603 19.229C22.7199 21.2776 23.4339 20.3722 22.0476 22.7346C19.627 26.8596 20.9597 25.6421 18.6628 26.0281L11.4865 28.3677C10.7327 28.6698 7.00835 32.3801 6.84839 33.8246Z" fill="#B7C7C7"/>
<path fill-rule="evenodd" clip-rule="evenodd" d="M38.08 60.5375L38.9338 52.5908C39.0738 51.0011 38.7383 51.2638 35.9911 50.9729C34.9072 50.8582 33.8212 50.7117 32.7329 50.6616C32.4471 52.3754 32.4248 53.9739 32.0176 55.4924C30.4252 61.4312 30.5166 62.2618 34.4573 62.0091C35.3084 61.9545 36.0382 62.1442 36.7419 61.8408C37.3123 61.5949 37.8211 61.14 38.08 60.5375Z" fill="#B7C7C7"/>
<path fill-rule="evenodd" clip-rule="evenodd" d="M20.422 47.7448L15.957 54.3735C15.0909 55.7139 15.5101 55.6385 17.8038 57.1781C18.709 57.7858 19.6008 58.4222 20.54 58.9747C21.5927 57.5925 22.3588 56.1893 23.4277 55.0365C27.6085 50.5282 27.9155 49.7509 24.3127 48.1347C23.5347 47.7857 22.9779 47.2771 22.2139 47.2168C21.5947 47.168 20.9324 47.3328 20.422 47.7448Z" fill="#B7C7C7"/>
<path fill-rule="evenodd" clip-rule="evenodd" d="M45.3828 53.5687L46.3174 61.506C46.5343 63.0871 46.8031 62.7566 49.5461 62.4292C50.6286 62.3001 51.72 62.2013 52.7921 62.0082C52.6896 60.2737 52.3559 58.7102 52.4151 57.1394C52.6471 50.9952 52.3733 50.2054 48.5874 51.3284C47.7698 51.5708 47.0162 51.548 46.3973 52.0004C45.8961 52.367 45.5011 52.9235 45.3828 53.5687Z" fill="#B7C7C7"/>
</svg>
