<svg width="76" height="75" viewBox="0 0 76 75" fill="none" xmlns="http://www.w3.org/2000/svg">
<path fill-rule="evenodd" clip-rule="evenodd" d="M15.3777 26.4623C14.8978 28.3029 15.9558 30.6296 16.3779 32.1366C13.7129 34.8302 14.1059 31.9598 12.0247 41.191C13.4912 42.9892 15.3393 44.8858 17.061 46.6716C18.781 48.4559 20.7206 46.9618 24.1083 45.6145C26.4165 44.6966 27.9804 43.0684 30.1179 41.3611C31.2329 40.4703 35.0172 37.4992 35.6577 36.3553C34.7131 33.4109 29.8698 25.9608 27.6481 23.2595C24.2766 19.1604 24.979 18.5069 21.2283 19.8211C17.8696 20.998 18.0502 19.9382 16.7102 23.2094C16.3303 24.1368 15.596 25.6252 15.3777 26.4623Z" fill="#AAD77D"/>
<path fill-rule="evenodd" clip-rule="evenodd" d="M40.269 37.2028C40.5222 38.0758 41.1022 38.663 41.4545 39.5337L43.9425 44.187C44.4179 45.2571 44.6257 45.5838 45.1818 46.5213L51.0756 55.2827C51.5928 55.5836 58.2779 54.1189 58.7701 52.9679C59.1599 51.4738 60.0062 49.2789 60.6493 47.885C61.5896 45.8465 59.8999 44.7155 59.8751 43.537C59.8475 42.2164 61.5679 42.3066 62.3614 39.2003C64.0966 32.4081 65.0786 34.0923 61.8819 30.8577C61.0124 29.9779 60.2254 29.1194 59.4782 28.3264C58.4854 27.7898 50.6289 30.6276 49.0607 31.2711C44.9086 32.9747 47.5243 32.0602 44.4635 33.9284C43.4016 34.5766 41.0577 36.1963 40.269 37.2028Z" fill="#AAD77D"/>
<path fill-rule="evenodd" clip-rule="evenodd" d="M19.6019 51.3771C19.5421 55.1718 19.0813 53.1325 22.1466 56.5339C25.6793 60.4544 25.1027 59.6837 28.7535 59.3712C30.1047 59.2555 31.4917 58.9974 32.761 58.814C33.7679 59.7608 34.7085 60.325 35.9533 61.2373C37.0885 62.0689 38.2807 63.2927 39.7845 62.9009C41.0965 62.5587 42.2571 62.0614 43.4456 61.7247C44.8581 61.3244 45.9389 60.895 47.1785 60.4065C47.4331 59.6261 47.5756 59.3492 47.8467 58.7472C48.3293 57.6755 48.2374 58.1672 48.6666 57.403L42.9993 48.69C41.7189 46.6682 38.9509 40.1754 37.7888 39.5332C35.3465 41.155 36.4424 41.3484 31.358 44.265C30.4966 44.7591 29.7481 45.0184 28.8471 45.5443C27.2075 46.501 25.7642 47.3436 24.1226 48.2953C23.3979 48.7157 19.9057 50.8855 19.6019 51.3771Z" fill="#AAD77D"/>
<path fill-rule="evenodd" clip-rule="evenodd" d="M27.4517 17.9061C28.5576 18.959 29.5929 20.5297 30.6166 21.7782C31.7386 23.1465 32.6858 24.2954 33.7933 25.6773C35.1089 27.3187 35.3439 28.2676 36.3512 29.9339C36.82 30.7092 38.2304 33.8081 38.7018 34.2778C39.2678 34.1148 42.2916 31.9582 42.9661 31.4221L47.2416 28.5366L57.4212 25.517C57.8539 24.5032 57.6171 23.1548 57.5916 22.0399C57.5575 20.5533 56.9404 20.5466 55.9889 19.5649C54.5586 18.0891 53.0306 16.7068 51.6666 15.2778C50.6354 15.0209 45.8906 15.7129 44.5765 15.8851C43.257 16.0581 39.6964 13.362 38.5172 12.5036C37.0561 11.4401 35.1014 12.379 31.9623 13.0415C30.1198 13.4302 30.4047 13.0974 29.2776 14.6319C28.5468 15.6268 27.7314 16.5502 27.4517 17.9061Z" fill="#AAD77D"/>
</svg>
