<svg width="55" height="55" viewBox="0 0 55 55" fill="none" xmlns="http://www.w3.org/2000/svg">
<path fill-rule="evenodd" clip-rule="evenodd" d="M19.2179 16.5675C16.4364 16.4213 13.3165 15.952 10.5164 15.632L2.20592 15.1859C1.18704 16.2707 0.558633 16.1364 0.32442 18.2403C0.123868 20.0399 1.60285 20.8099 3.37451 22.9288C5.0094 24.8842 7.4518 26.8128 9.24224 28.5368C10.4176 29.6687 11.5404 30.5983 12.7423 31.7277C11.8988 34.6074 6.4882 43.9091 6.13741 47.0576C5.93916 48.8368 7.79055 51.1076 9.781 50.6237C13.0366 49.8325 17.0549 47.7639 19.9578 46.2637C25.6237 43.3355 24.2248 42.5046 28.1737 46.2715C30.2045 48.209 36.2039 53.7078 38.8158 53.9989C40.8407 54.2244 42.5822 52.1445 42.5702 51.2031C42.5232 47.5393 39.5291 37.4623 39.6359 34.9437C42.0291 33.18 45.1912 32.0502 47.5668 30.2695C50.2248 28.2774 54.4082 26.6355 54.669 24.2939C54.8805 22.3955 53.7467 21.9597 52.456 21.1129C49.8178 19.3818 37.1983 18.6917 36.8208 18.5645C36.0381 18.3005 35.4869 14.76 35.3154 14.0267C34.9457 12.4459 34.7006 10.7541 34.2625 9.12368C32.9127 4.10049 33.5758 1.47135 29.9676 1.07184C27.1215 0.756841 26.7379 1.24741 25.8615 3.12431C25.1594 4.62756 24.3933 6.01725 23.6175 7.49783C22.3456 9.92465 20.1652 15.2393 19.2179 16.5675Z" fill="#A9CEE0"/>
</svg>
